# xmcd
#
# Track frame offsets: 
#        150
#        21453
#        25220
#        54228
#        76815
#        104865
#        126945
#        151910
#        173365
#        198397
#        222970
#
# Disc length: 3224 seconds
#
# Revision: 2
# Processed by: cddbd v1.5.2PL0 Copyright (c) Steve Scherf et al.
# Submitted via: ExactAudioCopy v1.0b3
#
DISCID=8d0c960b
DTITLE=Vickie Winans - Vickie Winans
DYEAR=1994
DGENRE=Contemporary Christian
TTITLE0=Work it out
TTITLE1=Track 2 Prelude: We ShallOvercome
TTITLE2=Track 3 Precious Lord (A tribute to Dr. Martin Luther King)
TTITLE3=Track 4 Sta;nd Up and Praise Him
TTITLE4=Track 5 We shall Behold Him (Newl Rendition)
TTITLE5=Track 6 The Only One
TTITLE6=Track 7 Suddenly
TTITLE7=Track 8 I Remember When
TTITLE8=Track 9 You Never Left me
TTITLE9=Track 10 Believing is Seeing
TTITLE10=Track 11  Mary Did You Know?
EXTD=
EXTT0=
EXTT1=
EXTT2=
EXTT3=
EXTT4=
EXTT5=
EXTT6=
EXTT7=
EXTT8=
EXTT9=
EXTT10=
PLAYORDER=
